<svg width="140" height="40" viewBox="0 0 140 40" fill="none" xmlns="http://www.w3.org/2000/svg">
<path fill-rule="evenodd" clip-rule="evenodd" d="M115.196 10.0766C111.616 10.4594 108.829 11.6549 107.059 13.567C105.354 15.409 104.601 17.6315 104.601 20.8241C104.601 23.3523 105.055 25.0777 106.184 26.8349C107.739 29.2541 110.431 30.7775 114.139 31.3364C115.818 31.5895 119.676 31.5866 121.398 31.3311C122.965 31.0983 125.044 30.4398 126.13 29.8323C129.626 27.8776 131.381 24.1032 130.931 19.5089C130.434 14.4388 127.462 11.4038 121.939 10.3273C120.461 10.0392 116.815 9.90359 115.196 10.0766ZM10.4862 13.0141V15.3202H18.5935H26.7007L26.6649 16.4733L26.629 17.6264L22.0791 17.7048C19.5767 17.7479 16.9683 17.8436 16.2827 17.9175C12.442 18.3314 10.5604 19.2997 9.52472 21.3952C9.08332 22.2883 9.05228 22.4277 9.00815 23.7177C8.98073 24.5174 9.02423 25.3795 9.11249 25.7835C9.61647 28.0929 11.268 29.6816 13.9507 30.438C14.8919 30.7033 15.1024 30.7097 24.2917 30.7483L33.672 30.7878V23.0541V15.3202H30.1817H26.6914V13.0141V10.708H18.5888H10.4862V13.0141ZM37.5364 13.0129V15.3179L43.5997 15.3501L49.6632 15.3826L46.2541 18.3743C44.3792 20.0197 42.5314 21.6184 42.1481 21.927C41.7646 22.2355 40.4019 23.4103 39.1197 24.5376L36.7884 26.5874V28.6824V30.7775H47.1348H57.4812V28.4713V26.1652L50.9056 26.16L44.3301 26.1549L44.7768 25.7549C45.0225 25.535 46.1444 24.5498 47.2699 23.5657C48.3954 22.5816 51.0109 20.2818 53.0822 18.4548L56.8482 15.1332L56.853 12.9206L56.8579 10.708H47.1971H37.5364V13.0129ZM95.501 13.0764V15.4449H92.0106H88.5203V23.1112V30.7775H92.0106H95.501V23.1112V15.4449H99.8639H104.227V13.0764V10.708H99.8639H95.501V13.0764ZM61.0039 18.0315C61.0441 24.3785 61.0747 25.3147 61.2628 25.9438C62.2707 29.3143 64.3143 30.7419 68.8871 31.2704C70.3342 31.4376 74.7946 31.4376 76.2418 31.2704C80.8146 30.7419 82.8582 29.3143 83.8661 25.9438C84.0542 25.3147 84.0848 24.3785 84.125 18.0315L84.1705 10.8326H80.6735H77.1767L77.1748 16.9096C77.1728 23.6119 77.1306 24.0743 76.4195 25.1824C75.7125 26.2843 74.5228 26.7885 72.6304 26.7885C70.8919 26.7885 69.6572 26.3689 68.9776 25.5471C68.6488 25.1494 68.2276 24.2099 68.0923 23.5725C67.9996 23.1354 67.9522 20.8694 67.9522 16.8723V10.8326H64.4554H60.9584L61.0039 18.0315ZM116.755 14.5778C114.48 14.8215 112.946 16.0174 112.193 18.1351C111.826 19.1651 111.728 21.5373 112.003 22.7072C112.672 25.5487 114.655 27.0305 117.796 27.0359C121.581 27.0427 123.698 24.8089 123.704 20.8051C123.71 16.4041 121.147 14.1072 116.755 14.5778ZM17.7785 21.8517C16.2662 22.1068 15.6594 22.7709 15.6594 24.1707C15.6594 25.2499 16.008 25.8331 16.8948 26.2372C17.9007 26.6954 18.8992 26.7865 22.9205 26.7875L26.6914 26.7885V24.2331V21.6776L22.6712 21.6911C20.222 21.6992 18.3102 21.762 17.7785 21.8517Z" fill="white"/>
</svg>
