<svg width="140" height="40" viewBox="0 0 140 40" fill="none" xmlns="http://www.w3.org/2000/svg">
<path fill-rule="evenodd" clip-rule="evenodd" d="M24.9707 10.7894C24.9707 10.3157 24.655 10 24.1814 10H5.78936C5.31574 10 5 10.3157 5 10.7894V28.9445C5 29.4182 5.31574 29.7339 5.78936 29.7339H24.1814C24.655 29.7339 24.9707 29.4182 24.9707 28.9445V10.7894ZM9.49933 24.2084L15.0248 15.4466L20.6293 24.2084H9.49933ZM75.6291 18.113V13.7716H72.7875V26.0855H75.5502V24.9804C76.1817 25.8487 77.2078 26.3223 78.6287 26.3223C79.6549 26.3223 80.4442 26.0855 81.1546 25.6119C81.8651 25.1383 82.3387 24.5068 82.6544 23.7964C82.9701 23.0071 83.128 22.2177 83.128 21.3494C83.128 20.56 83.0491 19.8496 82.8123 19.2971C82.5755 18.7445 82.2597 18.2709 81.7861 17.8762C81.3914 17.4816 80.9178 17.1658 80.3653 17.0079C79.8917 16.7711 79.3391 16.6922 78.7076 16.6922C77.3657 16.6922 76.3396 17.1658 75.6291 18.113ZM70.0247 22.2177C70.0247 22.2177 70.4983 16.4554 65.1307 16.4554C61.4207 16.4554 60.1578 19.2181 60.1578 21.5862C60.1578 23.9543 61.9733 26.2434 65.3675 26.2434C67.5777 26.2434 68.6828 25.533 69.4722 24.7436L67.8934 23.1649C67.8934 23.1649 67.0252 24.1121 65.3675 24.1121C64.0256 24.1121 63.0784 23.3228 62.7626 22.2177H70.0247ZM135.304 17.2448C135.304 17.2448 133.805 16.3765 131.516 16.3765C129.226 16.3765 127.174 17.6394 127.253 19.5339C127.253 21.3494 129.069 22.0598 130.253 22.2177C130.332 22.2177 130.43 22.2374 130.529 22.2572C130.628 22.2769 130.726 22.2966 130.805 22.2966L131.2 22.3756C132.147 22.5334 133.015 22.6913 133.015 23.3228C133.015 24.1911 130.332 24.6647 127.963 23.1649L127.016 25.1383C127.016 25.1383 128.358 26.0855 131.358 26.0855C134.357 26.0855 135.62 24.5068 135.62 23.086C135.62 21.6651 134.673 20.7969 132.542 20.4022C132.456 20.3863 132.373 20.371 132.292 20.3561C130.367 20.0004 129.858 19.9064 129.858 19.376C129.858 18.8235 131.2 17.7184 134.278 19.2971L135.304 17.2448ZM118.096 20.4811V13.0612H115.413V26.1645H118.096V23.6385L119.517 22.2966L122.517 26.1645H125.753L121.412 20.4811L125.359 16.6922H122.122L118.096 20.4811ZM113.045 18.7445C112.097 17.3237 110.44 16.3765 108.545 16.3765C105.625 16.3765 103.257 18.5077 103.336 21.1915C103.336 23.8753 105.625 26.0855 108.545 26.0855C110.44 26.0855 112.018 25.1383 112.966 23.7964L110.677 22.5334C110.282 23.3228 109.493 23.7964 108.545 23.7964C107.124 23.7964 106.019 22.6913 106.019 21.2705C106.019 19.8496 107.124 18.7445 108.545 18.7445C109.493 18.7445 110.361 19.2971 110.755 20.0864L113.045 18.7445ZM101.362 21.2705C101.362 18.5867 99.073 16.3765 96.1524 16.3765C93.2318 16.3765 90.8637 18.5077 90.9426 21.2705C90.9426 23.9543 93.2318 26.1645 96.1524 26.1645C98.9941 26.1645 101.362 23.9543 101.362 21.2705ZM48.7121 26.0066V16.6133H45.7915V26.0066H48.7121ZM43.2655 16.1397V13.7716H33.8722V26.0066H36.7928V21.5862H42.4762V19.2971H36.7928V16.1397H43.2655ZM58.1054 16.4554C55.9742 16.2186 54.948 17.7973 54.948 17.7973L54.7901 16.6133H52.1853V26.0855H54.948V20.8758C55.8163 18.5077 58.1054 19.0603 58.1054 19.0603V16.4554ZM88.101 26.0066V13.0612H85.1803V26.0066H88.101ZM75.5502 21.6651C75.5502 19.6918 76.3396 18.7445 77.9183 18.7445C78.7076 18.7445 79.3391 18.9813 79.8127 19.6128C80.2074 20.0864 80.3653 20.7969 80.3653 21.5862C80.3653 21.9809 80.2863 22.4545 80.1285 22.8492C79.9706 23.2439 79.7338 23.5596 79.418 23.8753C79.1023 24.1121 78.6287 24.27 78.0761 24.27C77.2078 24.27 76.5764 24.0332 76.1817 23.5596C75.787 23.0071 75.5502 22.3756 75.5502 21.6651ZM93.6265 21.1915C93.6265 19.7707 94.7316 18.6656 96.1524 18.6656C97.4943 18.6656 98.5994 19.8496 98.6783 21.1915C98.6783 22.6124 97.5732 23.7175 96.1524 23.7175C94.7316 23.7175 93.6265 22.6124 93.6265 21.1915ZM62.6837 20.4022C62.9205 19.2971 63.7099 18.4288 65.1307 18.4288C66.9462 18.4288 67.4198 20.1654 67.4198 20.4022H62.6837ZM49.0278 13.7716C49.0278 12.9033 48.2385 12.1929 47.2912 12.1929C46.344 12.1929 45.5547 12.9033 45.5547 13.7716C45.5547 14.6399 46.344 15.3503 47.2912 15.3503C48.2385 15.3503 49.0278 14.6399 49.0278 13.7716Z" fill="white"/>
</svg>
