<svg width="140" height="40" viewBox="0 0 140 40" fill="none" xmlns="http://www.w3.org/2000/svg">
<path d="M44.6926 32.3586V13.928H47.4457L47.6867 15.4224H47.8313C48.6026 14.4101 49.9524 13.687 51.7895 13.687C55.1693 13.687 57.917 16.4401 57.917 20.5376C57.917 24.635 55.2121 27.3881 51.7842 27.3881C49.9524 27.3881 48.6937 26.6168 48.0188 25.7491H47.8742V32.3104H44.6873V32.3586H44.6926ZM54.7301 20.5376C54.7301 18.1273 53.1875 16.6276 51.3021 16.6276C49.4168 16.6276 47.8742 18.1219 47.8742 20.5376C47.8742 22.9532 49.4168 24.4476 51.3021 24.4476C53.1875 24.4476 54.7301 22.9532 54.7301 20.5376Z" fill="white"/>
<path d="M59.5077 20.5376C59.5077 16.5311 62.4054 13.687 66.2136 13.687C70.0754 13.687 72.9196 16.5847 72.9196 20.5376C72.9196 24.544 70.0219 27.3881 66.2136 27.3881C62.3518 27.3881 59.5077 24.4958 59.5077 20.5376ZM69.7326 20.5376C69.7326 18.1755 68.1901 16.6276 66.2083 16.6276C64.28 16.6276 62.6839 18.1701 62.6839 20.5376C62.6839 22.905 64.2747 24.4476 66.2083 24.4476C68.1418 24.4476 69.7326 22.905 69.7326 20.5376Z" fill="white"/>
<path d="M75.2334 27.1473V8.86133H78.4203V27.1473H75.2334Z" fill="white"/>
<path d="M90.2898 13.9282H93.6695L87.9277 29.9967C87.3493 31.5875 86.578 32.3588 84.4998 32.3588H81.4146V29.4129H84.0177C84.4998 29.4129 84.7408 29.1719 84.8854 28.7862L85.1746 27.9185L79.7703 13.9229H83.15L86.578 23.0926H87.1082L90.1987 13.9229H90.2898V13.9282Z" fill="white"/>
<path d="M94.2959 27.8273H97.5311C97.6757 28.695 98.5434 29.852 100.573 29.852C102.502 29.852 103.76 28.6468 103.76 26.8096V24.9778H103.616C102.893 25.7491 101.591 26.424 99.9467 26.424C96.567 26.424 93.9156 23.8209 93.9156 20.0555C93.9156 16.2901 96.5188 13.687 99.9467 13.687C101.682 13.687 102.989 14.4101 103.809 15.3742H103.953L104.194 13.928H106.947V26.8096C106.947 30.334 104.585 32.6479 100.579 32.6479C96.0795 32.6479 94.3923 29.7073 94.2959 27.8273ZM103.707 20.0555C103.707 17.9827 102.261 16.5311 100.375 16.5311C98.5434 16.5311 97.0919 17.9773 97.0919 20.0555C97.0919 22.1337 98.538 23.5799 100.375 23.5799C102.212 23.5799 103.707 22.1283 103.707 20.0555Z" fill="white"/>
<path d="M109.111 20.5376C109.111 16.5311 112.008 13.687 115.817 13.687C119.678 13.687 122.522 16.5847 122.522 20.5376C122.522 24.544 119.625 27.3881 115.817 27.3881C111.955 27.3881 109.111 24.4958 109.111 20.5376ZM119.341 20.5376C119.341 18.1755 117.75 16.6276 115.817 16.6276C113.888 16.6276 112.292 18.1701 112.292 20.5376C112.292 22.905 113.883 24.4476 115.817 24.4476C117.745 24.4476 119.341 22.905 119.341 20.5376Z" fill="white"/>
<path d="M124.746 27.1471V13.928H127.499L127.74 15.1814H127.885C128.415 14.6029 129.717 13.687 131.698 13.687C134.741 13.687 136.91 15.8563 136.91 19.236V27.1953H133.723V19.6699C133.723 17.9827 132.518 16.724 130.874 16.724C129.229 16.724 127.928 18.0255 127.928 19.6699V27.1953H124.746V27.1471Z" fill="white"/>
<path d="M27.5152 25.6052L35.3299 21.0685C35.7637 20.8275 36.0048 20.3937 36.0048 19.9116V10.8383C36.0048 10.3562 35.7637 9.92235 35.3299 9.68132L27.5152 5.14464C27.0814 4.90361 26.5993 4.90361 26.1655 5.14464L18.3454 9.68132C17.9116 9.92235 17.6706 10.3562 17.6706 10.8383V27.0032L12.1698 30.1901L6.66898 27.0032V20.6829L12.1698 17.496L15.7906 19.5688V15.3214L12.8447 13.6342C12.6518 13.5378 12.4108 13.4414 12.1698 13.4414C11.9287 13.4414 11.6877 13.4896 11.4949 13.6342L3.67488 18.1762C3.24103 18.4172 3 18.8511 3 19.3331V28.4065C3 28.8886 3.24103 29.3224 3.67488 29.5634L11.4895 34.1001C11.9234 34.3412 12.4054 34.3412 12.8393 34.1001L20.654 29.5634C21.0878 29.3224 21.3288 28.8886 21.3288 28.4065V12.2416L21.4252 12.1934L26.835 9.05465L32.3358 12.2416V18.5619L26.835 21.7434L23.2142 19.6706V23.918L26.1601 25.6052C26.594 25.8463 27.076 25.8463 27.5152 25.6052Z" fill="white"/>
</svg>
