<svg width="12" height="14" viewBox="0 0 12 14" fill="none" xmlns="http://www.w3.org/2000/svg">
<path fill-rule="evenodd" clip-rule="evenodd" d="M7.88 1.99996H10.6667C11.4 1.99996 12 2.59996 12 3.33329V12.6666C12 13.4 11.4 14 10.6667 14H1.33333C0.6 14 0 13.4 0 12.6666V3.33329C0 2.59996 0.6 1.99996 1.33333 1.99996H4.12C4.4 1.22663 5.13333 0.666626 6 0.666626C6.86667 0.666626 7.6 1.22663 7.88 1.99996ZM6.66634 2.66679C6.66634 2.30012 6.36634 2.00012 5.99967 2.00012C5.63301 2.00012 5.33301 2.30012 5.33301 2.66679C5.33301 3.03346 5.63301 3.33346 5.99967 3.33346C6.36634 3.33346 6.66634 3.03346 6.66634 2.66679ZM6 4.66663C7.10667 4.66663 8 5.55996 8 6.66663C8 7.77329 7.10667 8.66663 6 8.66663C4.89333 8.66663 4 7.77329 4 6.66663C4 5.55996 4.89333 4.66663 6 4.66663ZM2 11.7333V12.6666H10V11.7333C10 10.4 7.33333 9.66663 6 9.66663C4.66667 9.66663 2 10.4 2 11.7333Z" fill="#878787"/>
</svg>
