<svg width="1030" height="360" viewBox="0 0 1030 360" fill="none" xmlns="http://www.w3.org/2000/svg">
<path d="M237.542 107.033C257.441 107.033 274.254 119.679 274.254 134.655C274.254 149.631 257.441 162.273 237.542 162.273H208.56L192.422 193.3H237.537C252.315 193.3 266.002 189.179 277.121 182.196C294.152 171.539 305.251 154.193 305.251 134.645C305.281 102.313 274.893 76 237.542 76H163.262L147.118 107.033H237.542Z" fill="#9E9DFE"/>
<path d="M257.491 208.829C258.788 212.507 259.053 216.47 258.257 220.288C256.694 228.408 251.036 236.65 242.733 242.836C233.984 249.362 222.987 253.112 212.569 253.112H153.929L185.027 193.32L201.17 162.273L215.537 134.645H180.561L166.189 162.273L150.051 193.3L118.953 253.112L102.81 284.14H212.569C229.777 284.14 247.078 278.314 261.287 267.728C275.943 256.802 285.697 242.034 288.742 226.14C290.553 217.088 289.935 207.719 286.951 198.984L257.491 208.829Z" fill="white"/>
<path d="M137.218 193.31H144.454L160.598 162.277H153.356H118.38L102.242 193.31L71.138 253.102L55 284.135H89.9759L106.119 253.102L137.218 193.31Z" fill="#9E9DFE"/>
<path fill-rule="evenodd" clip-rule="evenodd" d="M613.588 237V117.397H590.798V237H613.588ZM806.242 151.823C800.208 148.16 793.42 146.328 785.877 146.328C778.335 146.328 771.87 148.106 766.482 151.661C761.202 155.217 757.431 160.012 755.168 166.046V117.397H732.379V237H755.168V218.251C757.431 224.285 761.202 229.134 766.482 232.798C771.87 236.353 778.335 238.131 785.877 238.131C793.42 238.131 800.208 236.3 806.242 232.636C812.276 228.973 816.963 223.693 820.304 216.797C823.752 209.793 825.476 201.604 825.476 192.23C825.476 182.855 823.752 174.72 820.304 167.824C816.963 160.82 812.276 155.487 806.242 151.823ZM761.633 173.319C766.159 168.578 771.87 166.208 778.766 166.208C785.877 166.208 791.588 168.524 795.898 173.158C800.208 177.791 802.363 184.148 802.363 192.23C802.363 200.311 800.208 206.668 795.898 211.301C791.588 215.827 785.877 218.09 778.766 218.09C771.87 218.09 766.159 215.773 761.633 211.14C757.216 206.399 755.007 200.095 755.007 192.23C755.007 184.256 757.216 177.953 761.633 173.319ZM989.829 217.443V237H977.869C967.848 237 960.144 234.576 954.756 229.727C949.476 224.878 946.836 216.797 946.836 205.483V166.693H934.391V147.459H946.836V125.316H969.626V147.459H989.667V166.693H969.626V205.806C969.626 210.116 970.488 213.133 972.212 214.857C973.936 216.581 976.845 217.443 980.94 217.443H989.829ZM925.81 188.835C925.81 191.098 925.541 193.684 925.002 196.593H859.382C859.705 204.567 861.86 210.439 865.847 214.211C869.833 217.982 874.79 219.868 880.716 219.868C885.996 219.868 890.36 218.575 893.808 215.989C897.364 213.403 899.627 209.901 900.596 205.483H924.679C923.493 211.732 920.961 217.335 917.082 222.292C913.203 227.249 908.193 231.128 902.051 233.929C896.017 236.731 889.282 238.131 881.848 238.131C873.12 238.131 865.362 236.3 858.574 232.636C851.785 228.865 846.505 223.531 842.734 216.635C838.963 209.739 837.077 201.604 837.077 192.23C837.077 182.855 838.963 174.72 842.734 167.824C846.505 160.82 851.785 155.487 858.574 151.823C865.362 148.16 873.12 146.328 881.848 146.328C890.683 146.328 898.387 148.16 904.96 151.823C911.641 155.487 916.759 160.551 920.315 167.016C923.978 173.373 925.81 180.646 925.81 188.835ZM902.859 186.573C903.182 179.246 901.243 173.696 897.041 169.925C892.946 166.154 887.882 164.268 881.848 164.268C875.706 164.268 870.534 166.154 866.332 169.925C862.129 173.696 859.813 179.246 859.382 186.573H902.859ZM649.558 147.459L673.964 208.231L696.591 147.459H721.643L666.852 279.669H641.639L661.842 234.414L624.183 147.459H649.558ZM528.791 146.328C537.519 146.328 545.331 148.16 552.227 151.823C559.23 155.487 564.726 160.82 568.712 167.824C572.699 174.72 574.693 182.855 574.693 192.23C574.693 201.604 572.699 209.739 568.712 216.635C564.726 223.531 559.23 228.865 552.227 232.636C545.331 236.3 537.519 238.131 528.791 238.131C520.063 238.131 512.197 236.3 505.193 232.636C498.297 228.865 492.856 223.531 488.869 216.635C484.882 209.739 482.889 201.604 482.889 192.23C482.889 182.855 484.882 174.72 488.869 167.824C492.856 160.82 498.297 155.487 505.193 151.823C512.197 148.16 520.063 146.328 528.791 146.328ZM528.791 166.046C522.434 166.046 517.046 168.309 512.628 172.834C508.21 177.252 506.002 183.717 506.002 192.23C506.002 200.742 508.21 207.261 512.628 211.786C517.046 216.204 522.434 218.413 528.791 218.413C535.148 218.413 540.536 216.204 544.953 211.786C549.371 207.261 551.58 200.742 551.58 192.23C551.58 183.717 549.371 177.252 544.953 172.834C540.536 168.309 535.148 166.046 528.791 166.046ZM413.134 237V194.654H431.882C444.92 194.654 454.941 191.421 461.945 184.956C469.056 178.491 472.612 169.817 472.612 158.935C472.612 147.836 469.164 139.055 462.268 132.59C455.48 126.124 445.351 122.892 431.882 122.892H390.344V237H413.134ZM449.499 158.935C449.499 170.572 442.819 176.39 429.458 176.39H413.134V141.317H429.458C436.569 141.317 441.687 142.826 444.812 145.843C447.937 148.86 449.499 153.224 449.499 158.935Z" fill="white"/>
</svg>
