<svg width="1920" height="1080" viewBox="0 0 1920 1080" fill="none" xmlns="http://www.w3.org/2000/svg">
<rect x="-72.5" y="-40.5" width="129" height="129" stroke="white" stroke-opacity="0.09"/>
<rect x="56.5" y="-40.5" width="129" height="129" stroke="white" stroke-opacity="0.09"/>
<rect x="185.5" y="-40.5" width="129" height="129" stroke="white" stroke-opacity="0.09"/>
<rect x="314.5" y="-40.5" width="129" height="129" stroke="white" stroke-opacity="0.09"/>
<rect x="443.5" y="-40.5" width="129" height="129" stroke="white" stroke-opacity="0.09"/>
<rect x="572.5" y="-40.5" width="129" height="129" stroke="white" stroke-opacity="0.09"/>
<rect x="701.5" y="-40.5" width="129" height="129" stroke="white" stroke-opacity="0.09"/>
<rect x="830.5" y="-40.5" width="129" height="129" stroke="white" stroke-opacity="0.09"/>
<rect x="959.5" y="-40.5" width="129" height="129" stroke="white" stroke-opacity="0.09"/>
<rect x="1088.5" y="-40.5" width="129" height="129" stroke="white" stroke-opacity="0.09"/>
<rect x="1217.5" y="-40.5" width="129" height="129" stroke="white" stroke-opacity="0.09"/>
<rect x="1346.5" y="-40.5" width="129" height="129" stroke="white" stroke-opacity="0.09"/>
<rect x="1475.5" y="-40.5" width="129" height="129" stroke="white" stroke-opacity="0.09"/>
<rect x="1604.5" y="-40.5" width="129" height="129" stroke="white" stroke-opacity="0.09"/>
<rect x="1733.5" y="-40.5" width="129" height="129" stroke="white" stroke-opacity="0.09"/>
<rect x="1862.5" y="-40.5" width="129" height="129" stroke="white" stroke-opacity="0.09"/>
<rect x="-72.5" y="88.5" width="129" height="129" stroke="white" stroke-opacity="0.09"/>
<rect x="56.5" y="88.5" width="129" height="129" stroke="white" stroke-opacity="0.09"/>
<rect x="185.5" y="88.5" width="129" height="129" stroke="white" stroke-opacity="0.09"/>
<rect x="314.5" y="88.5" width="129" height="129" stroke="white" stroke-opacity="0.09"/>
<rect x="443.5" y="88.5" width="129" height="129" stroke="white" stroke-opacity="0.09"/>
<rect x="572.5" y="88.5" width="129" height="129" stroke="white" stroke-opacity="0.09"/>
<rect x="701.5" y="88.5" width="129" height="129" stroke="white" stroke-opacity="0.09"/>
<rect x="830.5" y="88.5" width="129" height="129" stroke="white" stroke-opacity="0.09"/>
<rect x="959.5" y="88.5" width="129" height="129" stroke="white" stroke-opacity="0.09"/>
<rect x="1088.5" y="88.5" width="129" height="129" stroke="white" stroke-opacity="0.09"/>
<rect x="1217.5" y="88.5" width="129" height="129" stroke="white" stroke-opacity="0.09"/>
<rect x="1346.5" y="88.5" width="129" height="129" stroke="white" stroke-opacity="0.09"/>
<rect x="1475.5" y="88.5" width="129" height="129" stroke="white" stroke-opacity="0.09"/>
<rect x="1604.5" y="88.5" width="129" height="129" stroke="white" stroke-opacity="0.09"/>
<rect x="1733.5" y="88.5" width="129" height="129" stroke="white" stroke-opacity="0.09"/>
<rect x="1862.5" y="88.5" width="129" height="129" stroke="white" stroke-opacity="0.09"/>
<rect x="-72.5" y="217.5" width="129" height="129" stroke="white" stroke-opacity="0.09"/>
<rect x="56.5" y="217.5" width="129" height="129" stroke="white" stroke-opacity="0.09"/>
<rect x="185.5" y="217.5" width="129" height="129" stroke="white" stroke-opacity="0.09"/>
<rect x="314.5" y="217.5" width="129" height="129" stroke="white" stroke-opacity="0.09"/>
<rect x="443.5" y="217.5" width="129" height="129" stroke="white" stroke-opacity="0.09"/>
<rect x="572.5" y="217.5" width="129" height="129" stroke="white" stroke-opacity="0.09"/>
<rect x="701.5" y="217.5" width="129" height="129" stroke="white" stroke-opacity="0.09"/>
<rect x="830.5" y="217.5" width="129" height="129" stroke="white" stroke-opacity="0.09"/>
<rect x="959.5" y="217.5" width="129" height="129" stroke="white" stroke-opacity="0.09"/>
<rect x="1088.5" y="217.5" width="129" height="129" stroke="white" stroke-opacity="0.09"/>
<rect x="1217.5" y="217.5" width="129" height="129" stroke="white" stroke-opacity="0.09"/>
<rect x="1346.5" y="217.5" width="129" height="129" stroke="white" stroke-opacity="0.09"/>
<rect x="1475.5" y="217.5" width="129" height="129" stroke="white" stroke-opacity="0.09"/>
<rect x="1604.5" y="217.5" width="129" height="129" stroke="white" stroke-opacity="0.09"/>
<rect x="1733.5" y="217.5" width="129" height="129" stroke="white" stroke-opacity="0.09"/>
<rect x="1862.5" y="217.5" width="129" height="129" stroke="white" stroke-opacity="0.09"/>
<rect x="-72.5" y="346.5" width="129" height="129" stroke="white" stroke-opacity="0.09"/>
<rect x="56.5" y="346.5" width="129" height="129" stroke="white" stroke-opacity="0.09"/>
<rect x="185.5" y="346.5" width="129" height="129" stroke="white" stroke-opacity="0.09"/>
<rect x="314.5" y="346.5" width="129" height="129" stroke="white" stroke-opacity="0.09"/>
<rect x="443.5" y="346.5" width="129" height="129" stroke="white" stroke-opacity="0.09"/>
<rect x="572.5" y="346.5" width="129" height="129" stroke="white" stroke-opacity="0.09"/>
<rect x="701.5" y="346.5" width="129" height="129" stroke="white" stroke-opacity="0.09"/>
<rect x="830.5" y="346.5" width="129" height="129" stroke="white" stroke-opacity="0.09"/>
<rect x="959.5" y="346.5" width="129" height="129" stroke="white" stroke-opacity="0.09"/>
<rect x="1088.5" y="346.5" width="129" height="129" stroke="white" stroke-opacity="0.09"/>
<rect x="1217.5" y="346.5" width="129" height="129" stroke="white" stroke-opacity="0.09"/>
<rect x="1346.5" y="346.5" width="129" height="129" stroke="white" stroke-opacity="0.09"/>
<rect x="1475.5" y="346.5" width="129" height="129" stroke="white" stroke-opacity="0.09"/>
<rect x="1604.5" y="346.5" width="129" height="129" stroke="white" stroke-opacity="0.09"/>
<rect x="1733.5" y="346.5" width="129" height="129" stroke="white" stroke-opacity="0.09"/>
<rect x="1862.5" y="346.5" width="129" height="129" stroke="white" stroke-opacity="0.09"/>
<rect x="-72.5" y="475.5" width="129" height="129" stroke="white" stroke-opacity="0.09"/>
<rect x="56.5" y="475.5" width="129" height="129" stroke="white" stroke-opacity="0.09"/>
<rect x="185.5" y="475.5" width="129" height="129" stroke="white" stroke-opacity="0.09"/>
<rect x="314.5" y="475.5" width="129" height="129" stroke="white" stroke-opacity="0.09"/>
<rect x="443.5" y="475.5" width="129" height="129" stroke="white" stroke-opacity="0.09"/>
<rect x="572.5" y="475.5" width="129" height="129" stroke="white" stroke-opacity="0.09"/>
<rect x="701.5" y="475.5" width="129" height="129" stroke="white" stroke-opacity="0.09"/>
<rect x="830.5" y="475.5" width="129" height="129" stroke="white" stroke-opacity="0.09"/>
<rect x="959.5" y="475.5" width="129" height="129" stroke="white" stroke-opacity="0.09"/>
<rect x="1088.5" y="475.5" width="129" height="129" stroke="white" stroke-opacity="0.09"/>
<rect x="1217.5" y="475.5" width="129" height="129" stroke="white" stroke-opacity="0.09"/>
<rect x="1346.5" y="475.5" width="129" height="129" stroke="white" stroke-opacity="0.09"/>
<rect x="1475.5" y="475.5" width="129" height="129" stroke="white" stroke-opacity="0.09"/>
<rect x="1604.5" y="475.5" width="129" height="129" stroke="white" stroke-opacity="0.09"/>
<rect x="1733.5" y="475.5" width="129" height="129" stroke="white" stroke-opacity="0.09"/>
<rect x="1862.5" y="475.5" width="129" height="129" stroke="white" stroke-opacity="0.09"/>
<rect x="-72.5" y="604.5" width="129" height="129" stroke="white" stroke-opacity="0.09"/>
<rect x="56.5" y="604.5" width="129" height="129" stroke="white" stroke-opacity="0.09"/>
<rect x="185.5" y="604.5" width="129" height="129" stroke="white" stroke-opacity="0.09"/>
<rect x="314.5" y="604.5" width="129" height="129" stroke="white" stroke-opacity="0.09"/>
<rect x="443.5" y="604.5" width="129" height="129" stroke="white" stroke-opacity="0.09"/>
<rect x="572.5" y="604.5" width="129" height="129" stroke="white" stroke-opacity="0.09"/>
<rect x="701.5" y="604.5" width="129" height="129" stroke="white" stroke-opacity="0.09"/>
<rect x="830.5" y="604.5" width="129" height="129" stroke="white" stroke-opacity="0.09"/>
<rect x="959.5" y="604.5" width="129" height="129" stroke="white" stroke-opacity="0.09"/>
<rect x="1088.5" y="604.5" width="129" height="129" stroke="white" stroke-opacity="0.09"/>
<rect x="1217.5" y="604.5" width="129" height="129" stroke="white" stroke-opacity="0.09"/>
<rect x="1346.5" y="604.5" width="129" height="129" stroke="white" stroke-opacity="0.09"/>
<rect x="1475.5" y="604.5" width="129" height="129" stroke="white" stroke-opacity="0.09"/>
<rect x="1604.5" y="604.5" width="129" height="129" stroke="white" stroke-opacity="0.09"/>
<rect x="1733.5" y="604.5" width="129" height="129" stroke="white" stroke-opacity="0.09"/>
<rect x="1862.5" y="604.5" width="129" height="129" stroke="white" stroke-opacity="0.09"/>
<rect x="-72.5" y="733.5" width="129" height="129" stroke="white" stroke-opacity="0.09"/>
<rect x="56.5" y="733.5" width="129" height="129" stroke="white" stroke-opacity="0.09"/>
<rect x="185.5" y="733.5" width="129" height="129" stroke="white" stroke-opacity="0.09"/>
<rect x="314.5" y="733.5" width="129" height="129" stroke="white" stroke-opacity="0.09"/>
<rect x="443.5" y="733.5" width="129" height="129" stroke="white" stroke-opacity="0.09"/>
<rect x="572.5" y="733.5" width="129" height="129" stroke="white" stroke-opacity="0.09"/>
<rect x="701.5" y="733.5" width="129" height="129" stroke="white" stroke-opacity="0.09"/>
<rect x="830.5" y="733.5" width="129" height="129" stroke="white" stroke-opacity="0.09"/>
<rect x="959.5" y="733.5" width="129" height="129" stroke="white" stroke-opacity="0.09"/>
<rect x="1088.5" y="733.5" width="129" height="129" stroke="white" stroke-opacity="0.09"/>
<rect x="1217.5" y="733.5" width="129" height="129" stroke="white" stroke-opacity="0.09"/>
<rect x="1346.5" y="733.5" width="129" height="129" stroke="white" stroke-opacity="0.09"/>
<rect x="1475.5" y="733.5" width="129" height="129" stroke="white" stroke-opacity="0.09"/>
<rect x="1604.5" y="733.5" width="129" height="129" stroke="white" stroke-opacity="0.09"/>
<rect x="1733.5" y="733.5" width="129" height="129" stroke="white" stroke-opacity="0.09"/>
<rect x="1862.5" y="733.5" width="129" height="129" stroke="white" stroke-opacity="0.09"/>
<rect x="-72.5" y="862.5" width="129" height="129" stroke="white" stroke-opacity="0.09"/>
<rect x="56.5" y="862.5" width="129" height="129" stroke="white" stroke-opacity="0.09"/>
<rect x="185.5" y="862.5" width="129" height="129" stroke="white" stroke-opacity="0.09"/>
<rect x="314.5" y="862.5" width="129" height="129" stroke="white" stroke-opacity="0.09"/>
<rect x="443.5" y="862.5" width="129" height="129" stroke="white" stroke-opacity="0.09"/>
<rect x="572.5" y="862.5" width="129" height="129" stroke="white" stroke-opacity="0.09"/>
<rect x="701.5" y="862.5" width="129" height="129" stroke="white" stroke-opacity="0.09"/>
<rect x="830.5" y="862.5" width="129" height="129" stroke="white" stroke-opacity="0.09"/>
<rect x="959.5" y="862.5" width="129" height="129" stroke="white" stroke-opacity="0.09"/>
<rect x="1088.5" y="862.5" width="129" height="129" stroke="white" stroke-opacity="0.09"/>
<rect x="1217.5" y="862.5" width="129" height="129" stroke="white" stroke-opacity="0.09"/>
<rect x="1346.5" y="862.5" width="129" height="129" stroke="white" stroke-opacity="0.09"/>
<rect x="1475.5" y="862.5" width="129" height="129" stroke="white" stroke-opacity="0.09"/>
<rect x="1604.5" y="862.5" width="129" height="129" stroke="white" stroke-opacity="0.09"/>
<rect x="1733.5" y="862.5" width="129" height="129" stroke="white" stroke-opacity="0.09"/>
<rect x="1862.5" y="862.5" width="129" height="129" stroke="white" stroke-opacity="0.09"/>
<rect x="-72.5" y="991.5" width="129" height="129" stroke="white" stroke-opacity="0.09"/>
<rect x="56.5" y="991.5" width="129" height="129" stroke="white" stroke-opacity="0.09"/>
<rect x="185.5" y="991.5" width="129" height="129" stroke="white" stroke-opacity="0.09"/>
<rect x="314.5" y="991.5" width="129" height="129" stroke="white" stroke-opacity="0.09"/>
<rect x="443.5" y="991.5" width="129" height="129" stroke="white" stroke-opacity="0.09"/>
<rect x="572.5" y="991.5" width="129" height="129" stroke="white" stroke-opacity="0.09"/>
<rect x="701.5" y="991.5" width="129" height="129" stroke="white" stroke-opacity="0.09"/>
<rect x="830.5" y="991.5" width="129" height="129" stroke="white" stroke-opacity="0.09"/>
<rect x="959.5" y="991.5" width="129" height="129" stroke="white" stroke-opacity="0.09"/>
<rect x="1088.5" y="991.5" width="129" height="129" stroke="white" stroke-opacity="0.09"/>
<rect x="1217.5" y="991.5" width="129" height="129" stroke="white" stroke-opacity="0.09"/>
<rect x="1346.5" y="991.5" width="129" height="129" stroke="white" stroke-opacity="0.09"/>
<rect x="1475.5" y="991.5" width="129" height="129" stroke="white" stroke-opacity="0.09"/>
<rect x="1604.5" y="991.5" width="129" height="129" stroke="white" stroke-opacity="0.09"/>
<rect x="1733.5" y="991.5" width="129" height="129" stroke="white" stroke-opacity="0.09"/>
<rect x="1862.5" y="991.5" width="129" height="129" stroke="white" stroke-opacity="0.09"/>
</svg>
